<?xml version="1.0" encoding="UTF-8" standalone="no"?>
<!DOCTYPE svg PUBLIC "-//W3C//DTD SVG 1.1//EN" "http://www.w3.org/Graphics/SVG/1.1/DTD/svg11.dtd">
<svg width="100%" height="100%" viewBox="0 0 2550 3300" version="1.1" xmlns="http://www.w3.org/2000/svg" xmlns:xlink="http://www.w3.org/1999/xlink" xml:space="preserve" xmlns:serif="http://www.serif.com/" style="fill-rule:evenodd;clip-rule:evenodd;stroke-linejoin:round;stroke-miterlimit:2;">
    <path d="M1275,1294.07C1078.56,1294.07 919.071,1453.56 919.071,1650C919.071,1846.44 1078.56,2005.93 1275,2005.93C960.172,2005.93 704.571,1750.33 704.571,1435.5C704.571,1120.67 960.172,865.071 1275,865.071" style="fill:url(#_Linear1);"/>
    <path d="M1275,2434.93C841.786,2434.93 490.071,2083.21 490.071,1650C490.071,1216.79 841.786,865.071 1275,865.071C960.172,865.071 704.571,1120.67 704.571,1435.5C704.571,1750.33 960.172,2005.93 1275,2005.93" style="fill:url(#_Linear2);"/>
    <g transform="matrix(1.0469,0,0,1.0469,148.589,-71.726)">
        <path d="M1048.38,894.826L1807.71,894.826L1807.71,1304.62L1198.1,2605.48C1099.6,2559.32 1023.47,2475.92 986.463,2373.63C949.454,2271.35 954.594,2158.55 1000.75,2060.05L1354.61,1304.97L1048.38,1304.97L1048.38,894.826Z" style="fill:url(#_Linear3);"/>
    </g>
    <g transform="matrix(1,0,0,1,-570.429,0)">
        <path d="M1845.43,865.071L1845.52,865.071C1845.69,865.071 1845.86,865.072 1846.03,865.072C1884.68,865.105 1922.43,868.99 1958.93,876.363C1800.36,916.721 1682.93,1060.57 1682.93,1231.63C1682.93,1264.66 1687.31,1296.68 1695.51,1327.14C1573.89,1383.76 1489.5,1507.1 1489.5,1650C1489.5,1846.44 1648.99,2005.93 1845.43,2005.93C1530.63,2005.93 1275.05,1750.38 1275,1435.6L1275,1435.5C1275.05,1120.69 1530.62,865.123 1845.43,865.071Z" style="fill:url(#_Linear4);"/>
    </g>
    <defs>
        <linearGradient id="_Linear1" x1="0" y1="0" x2="1" y2="0" gradientUnits="userSpaceOnUse" gradientTransform="matrix(-205.619,182.168,-182.168,-205.619,1088.15,1205.8)"><stop offset="0" style="stop-color:rgb(130,158,255);stop-opacity:1"/><stop offset="1" style="stop-color:rgb(142,229,255);stop-opacity:1"/></linearGradient>
        <linearGradient id="_Linear2" x1="0" y1="0" x2="1" y2="0" gradientUnits="userSpaceOnUse" gradientTransform="matrix(151.281,412.262,-448.858,164.71,612.85,1650)"><stop offset="0" style="stop-color:rgb(130,158,255);stop-opacity:1"/><stop offset="1" style="stop-color:rgb(106,219,251);stop-opacity:1"/></linearGradient>
        <linearGradient id="_Linear3" x1="0" y1="0" x2="1" y2="0" gradientUnits="userSpaceOnUse" gradientTransform="matrix(39.7112,-498.667,498.667,39.7112,1419.29,1865.06)"><stop offset="0" style="stop-color:rgb(94,89,254);stop-opacity:1"/><stop offset="1" style="stop-color:rgb(130,158,255);stop-opacity:1"/></linearGradient>
        <linearGradient id="_Linear4" x1="0" y1="0" x2="1" y2="0" gradientUnits="userSpaceOnUse" gradientTransform="matrix(84.4798,274.392,-274.392,84.4798,1368.48,1486.12)"><stop offset="0" style="stop-color:rgb(130,158,255);stop-opacity:0.51"/><stop offset="1" style="stop-color:rgb(106,219,251);stop-opacity:0.51"/></linearGradient>
    </defs>
</svg>
